<svg xmlns="http://www.w3.org/2000/svg" enable-background="new 0 0 1920 1080" viewBox="0 0 1920 1080" id="gamer"><circle cx="909" cy="519.9" r="519.9" fill="#ffbe55" opacity=".14"></circle><ellipse cx="922.7" cy="1033.3" fill="#0b4870" opacity=".27" rx="348.5" ry="46.7"></ellipse><path fill="#cce9ff" d="M1074.1 1037.4H659.8V755.9c0-18.8 15.3-34.1 34.1-34.1h380.2v315.6z"></path><path fill="#0b4870" d="M914.5 382.1s-28.3-21.7-30.5-56.5c-2.2-34.7 12.7-35.8 15.2-56.3s26.3-59.9 59.7-45.3c33.4 14.6 44.8-13.5 64.2 7.6 19.4 21 52.5 33.3 28.4 72.8s-62.8 120.9-137 77.7z"></path><path fill="#fcd2b1" d="m960.1 974.5 5.7 31.4 40.8-7-11.1-42.5zM1066.4 963.8l5.6 31.4 40.9-7.1-11.2-42.4z"></path><path fill="#0b4870" d="m1074.7 985.6 22.5.8c9.5.3 17.3-7.3 17.3-16.8v-.2c0-5.4 8.6 0 8.6 0s-2.4 21.6 12.3 27 41.4-17.4 46.3 11.9c2.4 14.6-.5 21.5-.5 21.5h-83.5s-1.8-.9-3.8-2.6c-4-3.2-7.4-2-11.9 2.6h-15.4v-37.2c-.1.1-2-7 8.1-7zM853.7 654.3s-29 96.3 141.7 96.3h26.8l41.4 224 46.1-10.4s-6.6-234.3-22.8-278.3c-10.9-29.6-91.5-31.6-91.5-31.6H853.7z"></path><path fill="#fcd2b1" d="M929.2 532.9s12.4 140 95 135.8c104.6-5.4 161.6-30.5 161.5-31.7-.1-1.2-10-6-10-6l-146.6-9c-49 2.6-42.1-97-42.1-97l-57.8 7.9z"></path><path fill="#ffbe55" d="M920.5 502.2c3.9 30.9 1.7 73.2 1.7 73.2l69.6-9.4s19.1-156.8-25.7-157.8-54.2 25.3-45.6 94z"></path><path fill="#ffbe55" d="M917.6 385.3s-107.9 8.9-154 107.6-53.4 166.7-53.4 166.7 70 4.4 134.7 4.4 87.8-8.5 87.8-8.5 17.7-93.9 48.2-178c22-60.7-6.9-84.1-63.3-92.2z"></path><path fill="#fcd2b1" d="M926.1 351.9s-26.7 58.5-14.7 74.6 48.4 18 51.1 8.3 9.2-49.3 9.2-49.3l-45.6-33.6z"></path><path fill="#ffe3ca" d="M912.5 322.3s-10.1-8.3-16.6-3.2c-6.4 5.1-3.7 35.5 16.6 27.2 0 0-8.8 58.9 68.4 58.9 30.9 0 54.9-60.9 49.9-107.2-2.6-24-49.6 11.7-34.7-10.9 19-28.7-69.9-12.3-56.1 7.6 8.1 11.6-15.6 23.6-18.1 31-3.8 10.6-10.1-6.8-9.4-3.4z"></path><path fill="#0b4870" d="M710.2 659.5s-29 96.3 141.7 96.3h26.8l80.1 219.7 44.1-7.6s-43.2-232.8-59.5-276.8c-10.9-29.6-91.5-31.6-91.5-31.6H710.2zM966.2 993.1l22.5.8c9.5.3 17.3-7.3 17.3-16.8v-.2c0-5.4 8.6 0 8.6 0s-2.4 21.6 12.3 27c14.7 5.4 41.4-17.4 46.3 11.9 2.4 14.6-.5 21.5-.5 21.5h-83.5s-1.8-.9-3.8-2.6c-4-3.2-7.4-2-11.9 2.6h-15.4v-37.2s-1.9-7 8.1-7z"></path><path fill="#ffe3ca" d="M838.8 548.4s.5 148 83.1 143.4c71.4-4 158.1-20.4 158.1-21.6s5.4-16 5.4-16l-154.6-8.5c-49.1-1.6-33.8-100.3-33.8-100.3l-58.2 3z"></path><path fill="#ffbe55" d="M832.7 517.1c1.2 31.1 4.4 48.9 4.4 48.9h63.5s29.9-133.9-14.6-138.8c-44.4-4.8-56 20.6-53.3 89.9zM1080.4 651.2s0-32.4 21.6-36.7 20 4.3 36.7 0c16.7-4.3 28.6-8.8 37.8-1.2 7.2 5.9 12.4 26.9 9.3 37.9-5 17.7-25.2 3.3-26.6-2.2-2.1-8.2-40.7-3.6-40.5 5.3.1 5.9-17 27.8-28.5 21.4s-9.8-24.5-9.8-24.5z"></path><path fill="#ffe3ca" d="M1051.7 656.3s26.5-21.7 42.2-20c26.6 2.9 31.3 12.4 28.9 17.9-3.4 7.7-9.8 20.1-48.6 17.6-38.8-2.6-22.5-15.5-22.5-15.5z"></path><path fill="#fcd2b1" d="M1171.6 636.5c-2.8 2.8-4.3 7.5-3.4 12 .8 4.3 3.5 8.4 11 7.6 15-1.6 11.1-20.5 11.1-20.5l-1.5-6.7c-.8-3.9-4.4-5.4-6.8-2.9l-10.4 10.5z"></path></svg>